<?xml version="1.0" encoding="UTF-8" standalone="no"?>
<!DOCTYPE svg PUBLIC "-//W3C//DTD SVG 1.1//EN"
 "http://www.w3.org/Graphics/SVG/1.1/DTD/svg11.dtd">
<!-- Generated by graphviz version 2.43.0 (0)
 -->
<!-- Title: G Pages: 1 -->
<svg width="375pt" height="980pt"
 viewBox="0.00 0.00 374.50 980.39" xmlns="http://www.w3.org/2000/svg" xmlns:xlink="http://www.w3.org/1999/xlink">
<g id="graph0" class="graph" transform="scale(1 1) rotate(0) translate(4 976.39)">
<title>G</title>
<polygon fill="white" stroke="transparent" points="-4,4 -4,-976.39 370.5,-976.39 370.5,4 -4,4"/>
<!-- start -->
<g id="node1" class="node">
<title>start</title>
<ellipse fill="none" stroke="black" cx="149" cy="-939.89" rx="32.49" ry="32.49"/>
<text text-anchor="middle" x="149" y="-936.19" font-family="Helvetica,sans-Serif" font-size="14.00">Start</text>
</g>
<!-- acceso -->
<g id="node3" class="node">
<title>acceso</title>
<path fill="none" stroke="black" d="M223.5,-870.39C223.5,-870.39 74.5,-870.39 74.5,-870.39 68.5,-870.39 62.5,-864.39 62.5,-858.39 62.5,-858.39 62.5,-846.39 62.5,-846.39 62.5,-840.39 68.5,-834.39 74.5,-834.39 74.5,-834.39 223.5,-834.39 223.5,-834.39 229.5,-834.39 235.5,-840.39 235.5,-846.39 235.5,-846.39 235.5,-858.39 235.5,-858.39 235.5,-864.39 229.5,-870.39 223.5,-870.39"/>
<text text-anchor="middle" x="149" y="-848.69" font-family="Helvetica,sans-Serif" font-size="14.00">Admin accede al panel</text>
</g>
<!-- start&#45;&gt;acceso -->
<g id="edge1" class="edge">
<title>start&#45;&gt;acceso</title>
<path fill="none" stroke="black" d="M149,-907.06C149,-898.38 149,-889.05 149,-880.65"/>
<polygon fill="black" stroke="black" points="152.5,-880.63 149,-870.63 145.5,-880.63 152.5,-880.63"/>
</g>
<!-- stop -->
<g id="node2" class="node">
<title>stop</title>
<ellipse fill="none" stroke="black" cx="146" cy="-35.2" rx="31.37" ry="31.37"/>
<ellipse fill="none" stroke="black" cx="146" cy="-35.2" rx="35.4" ry="35.4"/>
<text text-anchor="middle" x="146" y="-31.5" font-family="Helvetica,sans-Serif" font-size="14.00">Stop</text>
</g>
<!-- listado -->
<g id="node4" class="node">
<title>listado</title>
<path fill="none" stroke="black" d="M217.5,-797.39C217.5,-797.39 80.5,-797.39 80.5,-797.39 74.5,-797.39 68.5,-791.39 68.5,-785.39 68.5,-785.39 68.5,-773.39 68.5,-773.39 68.5,-767.39 74.5,-761.39 80.5,-761.39 80.5,-761.39 217.5,-761.39 217.5,-761.39 223.5,-761.39 229.5,-767.39 229.5,-773.39 229.5,-773.39 229.5,-785.39 229.5,-785.39 229.5,-791.39 223.5,-797.39 217.5,-797.39"/>
<text text-anchor="middle" x="149" y="-775.69" font-family="Helvetica,sans-Serif" font-size="14.00">Ver listado de cursos</text>
</g>
<!-- acceso&#45;&gt;listado -->
<g id="edge2" class="edge">
<title>acceso&#45;&gt;listado</title>
<path fill="none" stroke="black" d="M149,-834.21C149,-826.18 149,-816.44 149,-807.46"/>
<polygon fill="black" stroke="black" points="152.5,-807.42 149,-797.42 145.5,-807.42 152.5,-807.42"/>
</g>
<!-- crear -->
<g id="node5" class="node">
<title>crear</title>
<polygon fill="none" stroke="black" points="149,-724.39 46.11,-706.39 149,-688.39 251.89,-706.39 149,-724.39"/>
<text text-anchor="middle" x="149" y="-702.69" font-family="Helvetica,sans-Serif" font-size="14.00">¿Crear curso?</text>
</g>
<!-- listado&#45;&gt;crear -->
<g id="edge3" class="edge">
<title>listado&#45;&gt;crear</title>
<path fill="none" stroke="black" d="M149,-761.21C149,-753.18 149,-743.44 149,-734.46"/>
<polygon fill="black" stroke="black" points="152.5,-734.42 149,-724.42 145.5,-734.42 152.5,-734.42"/>
</g>
<!-- form_crear -->
<g id="node6" class="node">
<title>form_crear</title>
<path fill="none" stroke="black" d="M168,-637.39C168,-637.39 12,-637.39 12,-637.39 6,-637.39 0,-631.39 0,-625.39 0,-625.39 0,-613.39 0,-613.39 0,-607.39 6,-601.39 12,-601.39 12,-601.39 168,-601.39 168,-601.39 174,-601.39 180,-607.39 180,-613.39 180,-613.39 180,-625.39 180,-625.39 180,-631.39 174,-637.39 168,-637.39"/>
<text text-anchor="middle" x="90" y="-615.69" font-family="Helvetica,sans-Serif" font-size="14.00">Formulario nuevo curso</text>
</g>
<!-- crear&#45;&gt;form_crear -->
<g id="edge4" class="edge">
<title>crear&#45;&gt;form_crear</title>
<path fill="none" stroke="black" d="M138.45,-690.2C129.94,-677.94 117.79,-660.42 107.78,-646.01"/>
<polygon fill="black" stroke="black" points="110.45,-643.72 101.88,-637.5 104.7,-647.72 110.45,-643.72"/>
<text text-anchor="middle" x="131.5" y="-659.19" font-family="Times,serif" font-size="14.00">Sí</text>
</g>
<!-- editar -->
<g id="node8" class="node">
<title>editar</title>
<polygon fill="none" stroke="black" points="156,-477.39 49.26,-459.39 156,-441.39 262.74,-459.39 156,-477.39"/>
<text text-anchor="middle" x="156" y="-455.69" font-family="Helvetica,sans-Serif" font-size="14.00">¿Editar curso?</text>
</g>
<!-- crear&#45;&gt;editar -->
<g id="edge5" class="edge">
<title>crear&#45;&gt;editar</title>
<path fill="none" stroke="black" d="M161.12,-690.27C170.8,-677.16 183.6,-657.22 189,-637.39 194.96,-615.49 190.85,-539.35 184,-514.39 181.18,-504.12 176.23,-493.55 171.27,-484.52"/>
<polygon fill="black" stroke="black" points="174.22,-482.64 166.18,-475.74 168.17,-486.14 174.22,-482.64"/>
<text text-anchor="middle" x="202.5" y="-572.19" font-family="Times,serif" font-size="14.00">No</text>
</g>
<!-- guardar -->
<g id="node7" class="node">
<title>guardar</title>
<path fill="none" stroke="black" d="M163,-550.39C163,-550.39 47,-550.39 47,-550.39 41,-550.39 35,-544.39 35,-538.39 35,-538.39 35,-526.39 35,-526.39 35,-520.39 41,-514.39 47,-514.39 47,-514.39 163,-514.39 163,-514.39 169,-514.39 175,-520.39 175,-526.39 175,-526.39 175,-538.39 175,-538.39 175,-544.39 169,-550.39 163,-550.39"/>
<text text-anchor="middle" x="105" y="-528.69" font-family="Helvetica,sans-Serif" font-size="14.00">Guardar en BBDD</text>
</g>
<!-- form_crear&#45;&gt;guardar -->
<g id="edge6" class="edge">
<title>form_crear&#45;&gt;guardar</title>
<path fill="none" stroke="black" d="M93.04,-601.19C95.09,-589.56 97.84,-573.94 100.19,-560.63"/>
<polygon fill="black" stroke="black" points="103.68,-561.03 101.97,-550.57 96.78,-559.81 103.68,-561.03"/>
</g>
<!-- guardar&#45;&gt;editar -->
<g id="edge7" class="edge">
<title>guardar&#45;&gt;editar</title>
<path fill="none" stroke="black" d="M117.35,-514.21C123.82,-505.19 131.85,-494.01 138.92,-484.18"/>
<polygon fill="black" stroke="black" points="141.82,-486.13 144.81,-475.97 136.14,-482.05 141.82,-486.13"/>
</g>
<!-- modificar -->
<g id="node9" class="node">
<title>modificar</title>
<path fill="none" stroke="black" d="M158.5,-390.39C158.5,-390.39 59.5,-390.39 59.5,-390.39 53.5,-390.39 47.5,-384.39 47.5,-378.39 47.5,-378.39 47.5,-366.39 47.5,-366.39 47.5,-360.39 53.5,-354.39 59.5,-354.39 59.5,-354.39 158.5,-354.39 158.5,-354.39 164.5,-354.39 170.5,-360.39 170.5,-366.39 170.5,-366.39 170.5,-378.39 170.5,-378.39 170.5,-384.39 164.5,-390.39 158.5,-390.39"/>
<text text-anchor="middle" x="109" y="-368.69" font-family="Helvetica,sans-Serif" font-size="14.00">Modificar datos</text>
</g>
<!-- editar&#45;&gt;modificar -->
<g id="edge8" class="edge">
<title>editar&#45;&gt;modificar</title>
<path fill="none" stroke="black" d="M147.38,-442.8C140.68,-430.7 131.25,-413.63 123.41,-399.46"/>
<polygon fill="black" stroke="black" points="126.44,-397.7 118.54,-390.64 120.31,-401.09 126.44,-397.7"/>
<text text-anchor="middle" x="143.5" y="-412.19" font-family="Times,serif" font-size="14.00">Sí</text>
</g>
<!-- desactivar -->
<g id="node11" class="node">
<title>desactivar</title>
<polygon fill="none" stroke="black" points="150,-230.39 13.93,-212.39 150,-194.39 286.07,-212.39 150,-230.39"/>
<text text-anchor="middle" x="150" y="-208.69" font-family="Helvetica,sans-Serif" font-size="14.00">¿Desactivar curso?</text>
</g>
<!-- editar&#45;&gt;desactivar -->
<g id="edge9" class="edge">
<title>editar&#45;&gt;desactivar</title>
<path fill="none" stroke="black" d="M162.68,-442.25C175.51,-408.97 200.78,-330.58 183,-267.39 180.01,-256.77 174.28,-246.16 168.43,-237.2"/>
<polygon fill="black" stroke="black" points="171.2,-235.06 162.62,-228.84 165.45,-239.05 171.2,-235.06"/>
<text text-anchor="middle" x="200.5" y="-325.19" font-family="Times,serif" font-size="14.00">No</text>
</g>
<!-- actualizar -->
<g id="node10" class="node">
<title>actualizar</title>
<path fill="none" stroke="black" d="M162,-303.39C162,-303.39 34,-303.39 34,-303.39 28,-303.39 22,-297.39 22,-291.39 22,-291.39 22,-279.39 22,-279.39 22,-273.39 28,-267.39 34,-267.39 34,-267.39 162,-267.39 162,-267.39 168,-267.39 174,-273.39 174,-279.39 174,-279.39 174,-291.39 174,-291.39 174,-297.39 168,-303.39 162,-303.39"/>
<text text-anchor="middle" x="98" y="-281.69" font-family="Helvetica,sans-Serif" font-size="14.00">Actualizar en BBDD</text>
</g>
<!-- modificar&#45;&gt;actualizar -->
<g id="edge10" class="edge">
<title>modificar&#45;&gt;actualizar</title>
<path fill="none" stroke="black" d="M106.77,-354.19C105.27,-342.56 103.25,-326.94 101.52,-313.63"/>
<polygon fill="black" stroke="black" points="104.98,-313.04 100.22,-303.57 98.04,-313.94 104.98,-313.04"/>
</g>
<!-- actualizar&#45;&gt;desactivar -->
<g id="edge11" class="edge">
<title>actualizar&#45;&gt;desactivar</title>
<path fill="none" stroke="black" d="M110.59,-267.21C117.19,-258.19 125.38,-247.01 132.58,-237.18"/>
<polygon fill="black" stroke="black" points="135.51,-239.11 138.59,-228.97 129.86,-234.97 135.51,-239.11"/>
</g>
<!-- desactivar&#45;&gt;stop -->
<g id="edge13" class="edge">
<title>desactivar&#45;&gt;stop</title>
<path fill="none" stroke="black" d="M147.79,-194.66C146.1,-180.92 143.9,-160.94 143,-143.39 141.94,-122.75 142.36,-99.84 143.18,-80.52"/>
<polygon fill="black" stroke="black" points="146.68,-80.64 143.66,-70.49 139.69,-80.31 146.68,-80.64"/>
<text text-anchor="middle" x="153.5" y="-121.69" font-family="Times,serif" font-size="14.00">No</text>
</g>
<!-- inactivo -->
<g id="node12" class="node">
<title>inactivo</title>
<path fill="none" stroke="black" d="M354.5,-143.39C354.5,-143.39 185.5,-143.39 185.5,-143.39 179.5,-143.39 173.5,-137.39 173.5,-131.39 173.5,-131.39 173.5,-119.39 173.5,-119.39 173.5,-113.39 179.5,-107.39 185.5,-107.39 185.5,-107.39 354.5,-107.39 354.5,-107.39 360.5,-107.39 366.5,-113.39 366.5,-119.39 366.5,-119.39 366.5,-131.39 366.5,-131.39 366.5,-137.39 360.5,-143.39 354.5,-143.39"/>
<text text-anchor="middle" x="270" y="-121.69" font-family="Helvetica,sans-Serif" font-size="14.00">Cambiar is_active = false</text>
</g>
<!-- desactivar&#45;&gt;inactivo -->
<g id="edge12" class="edge">
<title>desactivar&#45;&gt;inactivo</title>
<path fill="none" stroke="black" d="M170.36,-196.98C188.77,-183.93 216.21,-164.49 237.64,-149.32"/>
<polygon fill="black" stroke="black" points="239.68,-152.16 245.82,-143.53 235.63,-146.45 239.68,-152.16"/>
<text text-anchor="middle" x="224.5" y="-165.19" font-family="Times,serif" font-size="14.00">Sí</text>
</g>
<!-- inactivo&#45;&gt;stop -->
<g id="edge14" class="edge">
<title>inactivo&#45;&gt;stop</title>
<path fill="none" stroke="black" d="M246.09,-107.39C228.15,-94.63 203.27,-76.93 182.8,-62.37"/>
<polygon fill="black" stroke="black" points="184.8,-59.5 174.62,-56.56 180.74,-65.2 184.8,-59.5"/>
</g>
</g>
</svg>
