<?xml version="1.0" encoding="UTF-8" standalone="no"?>
<!DOCTYPE svg PUBLIC "-//W3C//DTD SVG 1.1//EN"
 "http://www.w3.org/Graphics/SVG/1.1/DTD/svg11.dtd">
<!-- Generated by graphviz version 2.43.0 (0)
 -->
<!-- Title: G Pages: 1 -->
<svg width="326pt" height="521pt"
 viewBox="0.00 0.00 326.03 521.39" xmlns="http://www.w3.org/2000/svg" xmlns:xlink="http://www.w3.org/1999/xlink">
<g id="graph0" class="graph" transform="scale(1 1) rotate(0) translate(4 517.39)">
<title>G</title>
<polygon fill="white" stroke="transparent" points="-4,4 -4,-517.39 322.03,-517.39 322.03,4 -4,4"/>
<!-- start -->
<g id="node1" class="node">
<title>start</title>
<ellipse fill="none" stroke="black" cx="159.01" cy="-480.89" rx="32.49" ry="32.49"/>
<text text-anchor="middle" x="159.01" y="-477.19" font-family="Helvetica,sans-Serif" font-size="14.00">Start</text>
</g>
<!-- envio -->
<g id="node3" class="node">
<title>envio</title>
<path fill="none" stroke="black" d="M267.51,-411.39C267.51,-411.39 50.51,-411.39 50.51,-411.39 44.51,-411.39 38.51,-405.39 38.51,-399.39 38.51,-399.39 38.51,-387.39 38.51,-387.39 38.51,-381.39 44.51,-375.39 50.51,-375.39 50.51,-375.39 267.51,-375.39 267.51,-375.39 273.51,-375.39 279.51,-381.39 279.51,-387.39 279.51,-387.39 279.51,-399.39 279.51,-399.39 279.51,-405.39 273.51,-411.39 267.51,-411.39"/>
<text text-anchor="middle" x="159.01" y="-389.69" font-family="Helvetica,sans-Serif" font-size="14.00">Usuario envía email + password</text>
</g>
<!-- start&#45;&gt;envio -->
<g id="edge1" class="edge">
<title>start&#45;&gt;envio</title>
<path fill="none" stroke="black" d="M159.01,-448.06C159.01,-439.38 159.01,-430.05 159.01,-421.65"/>
<polygon fill="black" stroke="black" points="162.51,-421.63 159.01,-411.63 155.51,-421.63 162.51,-421.63"/>
</g>
<!-- stop -->
<g id="node2" class="node">
<title>stop</title>
<ellipse fill="none" stroke="black" cx="155.01" cy="-35.2" rx="31.37" ry="31.37"/>
<ellipse fill="none" stroke="black" cx="155.01" cy="-35.2" rx="35.4" ry="35.4"/>
<text text-anchor="middle" x="155.01" y="-31.5" font-family="Helvetica,sans-Serif" font-size="14.00">Stop</text>
</g>
<!-- validas -->
<g id="node4" class="node">
<title>validas</title>
<polygon fill="none" stroke="black" points="159.01,-338.39 -0.01,-320.39 159.01,-302.39 318.04,-320.39 159.01,-338.39"/>
<text text-anchor="middle" x="159.01" y="-316.69" font-family="Helvetica,sans-Serif" font-size="14.00">¿Credenciales válidas?</text>
</g>
<!-- envio&#45;&gt;validas -->
<g id="edge2" class="edge">
<title>envio&#45;&gt;validas</title>
<path fill="none" stroke="black" d="M159.01,-375.21C159.01,-367.18 159.01,-357.44 159.01,-348.46"/>
<polygon fill="black" stroke="black" points="162.51,-348.42 159.01,-338.42 155.51,-348.42 162.51,-348.42"/>
</g>
<!-- jwt -->
<g id="node5" class="node">
<title>jwt</title>
<path fill="none" stroke="black" d="M154.01,-251.39C154.01,-251.39 74.01,-251.39 74.01,-251.39 68.01,-251.39 62.01,-245.39 62.01,-239.39 62.01,-239.39 62.01,-227.39 62.01,-227.39 62.01,-221.39 68.01,-215.39 74.01,-215.39 74.01,-215.39 154.01,-215.39 154.01,-215.39 160.01,-215.39 166.01,-221.39 166.01,-227.39 166.01,-227.39 166.01,-239.39 166.01,-239.39 166.01,-245.39 160.01,-251.39 154.01,-251.39"/>
<text text-anchor="middle" x="114.01" y="-229.69" font-family="Helvetica,sans-Serif" font-size="14.00">Generar JWT</text>
</g>
<!-- validas&#45;&gt;jwt -->
<g id="edge3" class="edge">
<title>validas&#45;&gt;jwt</title>
<path fill="none" stroke="black" d="M150.34,-303.01C143.99,-291.01 135.24,-274.49 127.92,-260.66"/>
<polygon fill="black" stroke="black" points="130.9,-258.81 123.13,-251.61 124.71,-262.08 130.9,-258.81"/>
<text text-anchor="middle" x="147.51" y="-273.19" font-family="Times,serif" font-size="14.00">Sí</text>
</g>
<!-- error -->
<g id="node7" class="node">
<title>error</title>
<path fill="none" stroke="black" d="M277.01,-197.39C277.01,-197.39 131.01,-197.39 131.01,-197.39 125.01,-197.39 119.01,-191.39 119.01,-185.39 119.01,-185.39 119.01,-173.39 119.01,-173.39 119.01,-167.39 125.01,-161.39 131.01,-161.39 131.01,-161.39 277.01,-161.39 277.01,-161.39 283.01,-161.39 289.01,-167.39 289.01,-173.39 289.01,-173.39 289.01,-185.39 289.01,-185.39 289.01,-191.39 283.01,-197.39 277.01,-197.39"/>
<text text-anchor="middle" x="204.01" y="-175.69" font-family="Helvetica,sans-Serif" font-size="14.00">Error de autenticación</text>
</g>
<!-- validas&#45;&gt;error -->
<g id="edge4" class="edge">
<title>validas&#45;&gt;error</title>
<path fill="none" stroke="black" d="M164.35,-302.9C171.98,-279.33 186.1,-235.74 195.27,-207.41"/>
<polygon fill="black" stroke="black" points="198.65,-208.33 198.4,-197.74 191.99,-206.17 198.65,-208.33"/>
<text text-anchor="middle" x="185.51" y="-273.19" font-family="Times,serif" font-size="14.00">No</text>
</g>
<!-- token -->
<g id="node6" class="node">
<title>token</title>
<path fill="none" stroke="black" d="M157.51,-143.39C157.51,-143.39 60.51,-143.39 60.51,-143.39 54.51,-143.39 48.51,-137.39 48.51,-131.39 48.51,-131.39 48.51,-119.39 48.51,-119.39 48.51,-113.39 54.51,-107.39 60.51,-107.39 60.51,-107.39 157.51,-107.39 157.51,-107.39 163.51,-107.39 169.51,-113.39 169.51,-119.39 169.51,-119.39 169.51,-131.39 169.51,-131.39 169.51,-137.39 163.51,-143.39 157.51,-143.39"/>
<text text-anchor="middle" x="109.01" y="-121.69" font-family="Helvetica,sans-Serif" font-size="14.00">Devolver token</text>
</g>
<!-- jwt&#45;&gt;token -->
<g id="edge5" class="edge">
<title>jwt&#45;&gt;token</title>
<path fill="none" stroke="black" d="M113.21,-215.36C112.43,-198.77 111.23,-173.28 110.31,-153.83"/>
<polygon fill="black" stroke="black" points="113.8,-153.56 109.83,-143.74 106.81,-153.89 113.8,-153.56"/>
</g>
<!-- token&#45;&gt;stop -->
<g id="edge6" class="edge">
<title>token&#45;&gt;stop</title>
<path fill="none" stroke="black" d="M117.88,-107.39C122.57,-98.39 128.55,-86.94 134.32,-75.87"/>
<polygon fill="black" stroke="black" points="137.57,-77.2 139.1,-66.72 131.37,-73.97 137.57,-77.2"/>
</g>
<!-- error&#45;&gt;stop -->
<g id="edge7" class="edge">
<title>error&#45;&gt;stop</title>
<path fill="none" stroke="black" d="M198.1,-161.24C191.07,-140.82 179.07,-106.01 169.52,-78.29"/>
<polygon fill="black" stroke="black" points="172.82,-77.13 166.25,-68.82 166.2,-79.41 172.82,-77.13"/>
</g>
</g>
</svg>
