<?xml version="1.0" encoding="UTF-8" standalone="no"?>
<!DOCTYPE svg PUBLIC "-//W3C//DTD SVG 1.1//EN"
 "http://www.w3.org/Graphics/SVG/1.1/DTD/svg11.dtd">
<!-- Generated by graphviz version 2.43.0 (0)
 -->
<!-- Title: G Pages: 1 -->
<svg width="452pt" height="1039pt"
 viewBox="0.00 0.00 452.00 1039.39" xmlns="http://www.w3.org/2000/svg" xmlns:xlink="http://www.w3.org/1999/xlink">
<g id="graph0" class="graph" transform="scale(1 1) rotate(0) translate(4 1035.39)">
<title>G</title>
<polygon fill="white" stroke="transparent" points="-4,4 -4,-1035.39 448,-1035.39 448,4 -4,4"/>
<!-- start -->
<g id="node1" class="node">
<title>start</title>
<ellipse fill="none" stroke="black" cx="239" cy="-998.89" rx="32.49" ry="32.49"/>
<text text-anchor="middle" x="239" y="-995.19" font-family="Helvetica,sans-Serif" font-size="14.00">Start</text>
</g>
<!-- usuario_acc -->
<g id="node3" class="node">
<title>usuario_acc</title>
<path fill="none" stroke="black" d="M343,-929.39C343,-929.39 135,-929.39 135,-929.39 129,-929.39 123,-923.39 123,-917.39 123,-917.39 123,-905.39 123,-905.39 123,-899.39 129,-893.39 135,-893.39 135,-893.39 343,-893.39 343,-893.39 349,-893.39 355,-899.39 355,-905.39 355,-905.39 355,-917.39 355,-917.39 355,-923.39 349,-929.39 343,-929.39"/>
<text text-anchor="middle" x="239" y="-907.69" font-family="Helvetica,sans-Serif" font-size="14.00">Usuario accede a la plataforma</text>
</g>
<!-- start&#45;&gt;usuario_acc -->
<g id="edge1" class="edge">
<title>start&#45;&gt;usuario_acc</title>
<path fill="none" stroke="black" d="M239,-966.06C239,-957.38 239,-948.05 239,-939.65"/>
<polygon fill="black" stroke="black" points="242.5,-939.63 239,-929.63 235.5,-939.63 242.5,-939.63"/>
</g>
<!-- stop -->
<g id="node2" class="node">
<title>stop</title>
<ellipse fill="none" stroke="black" cx="219" cy="-35.2" rx="31.37" ry="31.37"/>
<ellipse fill="none" stroke="black" cx="219" cy="-35.2" rx="35.4" ry="35.4"/>
<text text-anchor="middle" x="219" y="-31.5" font-family="Helvetica,sans-Serif" font-size="14.00">Stop</text>
</g>
<!-- registrado -->
<g id="node4" class="node">
<title>registrado</title>
<polygon fill="none" stroke="black" points="239,-856.39 113.15,-838.39 239,-820.39 364.85,-838.39 239,-856.39"/>
<text text-anchor="middle" x="239" y="-834.69" font-family="Helvetica,sans-Serif" font-size="14.00">¿Está registrado?</text>
</g>
<!-- usuario_acc&#45;&gt;registrado -->
<g id="edge2" class="edge">
<title>usuario_acc&#45;&gt;registrado</title>
<path fill="none" stroke="black" d="M239,-893.21C239,-885.18 239,-875.44 239,-866.46"/>
<polygon fill="black" stroke="black" points="242.5,-866.42 239,-856.42 235.5,-866.42 242.5,-866.42"/>
</g>
<!-- login -->
<g id="node5" class="node">
<title>login</title>
<path fill="none" stroke="black" d="M213,-769.39C213,-769.39 183,-769.39 183,-769.39 177,-769.39 171,-763.39 171,-757.39 171,-757.39 171,-745.39 171,-745.39 171,-739.39 177,-733.39 183,-733.39 183,-733.39 213,-733.39 213,-733.39 219,-733.39 225,-739.39 225,-745.39 225,-745.39 225,-757.39 225,-757.39 225,-763.39 219,-769.39 213,-769.39"/>
<text text-anchor="middle" x="198" y="-747.69" font-family="Helvetica,sans-Serif" font-size="14.00">Login</text>
</g>
<!-- registrado&#45;&gt;login -->
<g id="edge3" class="edge">
<title>registrado&#45;&gt;login</title>
<path fill="none" stroke="black" d="M231.29,-821.41C225.48,-809.37 217.4,-792.61 210.65,-778.63"/>
<polygon fill="black" stroke="black" points="213.74,-776.96 206.24,-769.48 207.43,-780 213.74,-776.96"/>
<text text-anchor="middle" x="228.5" y="-791.19" font-family="Times,serif" font-size="14.00">Sí</text>
</g>
<!-- registro -->
<g id="node6" class="node">
<title>registro</title>
<path fill="none" stroke="black" d="M304.5,-769.39C304.5,-769.39 255.5,-769.39 255.5,-769.39 249.5,-769.39 243.5,-763.39 243.5,-757.39 243.5,-757.39 243.5,-745.39 243.5,-745.39 243.5,-739.39 249.5,-733.39 255.5,-733.39 255.5,-733.39 304.5,-733.39 304.5,-733.39 310.5,-733.39 316.5,-739.39 316.5,-745.39 316.5,-745.39 316.5,-757.39 316.5,-757.39 316.5,-763.39 310.5,-769.39 304.5,-769.39"/>
<text text-anchor="middle" x="280" y="-747.69" font-family="Helvetica,sans-Serif" font-size="14.00">Registro</text>
</g>
<!-- registrado&#45;&gt;registro -->
<g id="edge4" class="edge">
<title>registrado&#45;&gt;registro</title>
<path fill="none" stroke="black" d="M246.71,-821.41C252.52,-809.37 260.6,-792.61 267.35,-778.63"/>
<polygon fill="black" stroke="black" points="270.57,-780 271.76,-769.48 264.26,-776.96 270.57,-780"/>
<text text-anchor="middle" x="271.5" y="-791.19" font-family="Times,serif" font-size="14.00">No</text>
</g>
<!-- cursos -->
<g id="node7" class="node">
<title>cursos</title>
<path fill="none" stroke="black" d="M312.5,-696.39C312.5,-696.39 163.5,-696.39 163.5,-696.39 157.5,-696.39 151.5,-690.39 151.5,-684.39 151.5,-684.39 151.5,-672.39 151.5,-672.39 151.5,-666.39 157.5,-660.39 163.5,-660.39 163.5,-660.39 312.5,-660.39 312.5,-660.39 318.5,-660.39 324.5,-666.39 324.5,-672.39 324.5,-672.39 324.5,-684.39 324.5,-684.39 324.5,-690.39 318.5,-696.39 312.5,-696.39"/>
<text text-anchor="middle" x="238" y="-674.69" font-family="Helvetica,sans-Serif" font-size="14.00">Ver cursos disponibles</text>
</g>
<!-- login&#45;&gt;cursos -->
<g id="edge5" class="edge">
<title>login&#45;&gt;cursos</title>
<path fill="none" stroke="black" d="M207.68,-733.21C212.4,-724.84 218.17,-714.59 223.41,-705.3"/>
<polygon fill="black" stroke="black" points="226.55,-706.85 228.41,-696.42 220.45,-703.42 226.55,-706.85"/>
</g>
<!-- registro&#45;&gt;cursos -->
<g id="edge6" class="edge">
<title>registro&#45;&gt;cursos</title>
<path fill="none" stroke="black" d="M269.83,-733.21C264.88,-724.84 258.82,-714.59 253.32,-705.3"/>
<polygon fill="black" stroke="black" points="256.18,-703.25 248.07,-696.42 250.15,-706.81 256.18,-703.25"/>
</g>
<!-- inscribirse -->
<g id="node8" class="node">
<title>inscribirse</title>
<polygon fill="none" stroke="black" points="238,-623.39 45.79,-605.39 238,-587.39 430.21,-605.39 238,-623.39"/>
<text text-anchor="middle" x="238" y="-601.69" font-family="Helvetica,sans-Serif" font-size="14.00">¿Usuario quiere inscribirse?</text>
</g>
<!-- cursos&#45;&gt;inscribirse -->
<g id="edge7" class="edge">
<title>cursos&#45;&gt;inscribirse</title>
<path fill="none" stroke="black" d="M238,-660.21C238,-652.18 238,-642.44 238,-633.46"/>
<polygon fill="black" stroke="black" points="241.5,-633.42 238,-623.42 234.5,-633.42 241.5,-633.42"/>
</g>
<!-- solicitud -->
<g id="node9" class="node">
<title>solicitud</title>
<path fill="none" stroke="black" d="M236.5,-536.39C236.5,-536.39 137.5,-536.39 137.5,-536.39 131.5,-536.39 125.5,-530.39 125.5,-524.39 125.5,-524.39 125.5,-512.39 125.5,-512.39 125.5,-506.39 131.5,-500.39 137.5,-500.39 137.5,-500.39 236.5,-500.39 236.5,-500.39 242.5,-500.39 248.5,-506.39 248.5,-512.39 248.5,-512.39 248.5,-524.39 248.5,-524.39 248.5,-530.39 242.5,-536.39 236.5,-536.39"/>
<text text-anchor="middle" x="187" y="-514.69" font-family="Helvetica,sans-Serif" font-size="14.00">Enviar solicitud</text>
</g>
<!-- inscribirse&#45;&gt;solicitud -->
<g id="edge8" class="edge">
<title>inscribirse&#45;&gt;solicitud</title>
<path fill="none" stroke="black" d="M228.17,-588.01C220.9,-575.9 210.86,-559.17 202.52,-545.26"/>
<polygon fill="black" stroke="black" points="205.47,-543.38 197.33,-536.61 199.47,-546.98 205.47,-543.38"/>
<text text-anchor="middle" x="223.5" y="-558.19" font-family="Times,serif" font-size="14.00">Sí</text>
</g>
<!-- admin_rev -->
<g id="node11" class="node">
<title>admin_rev</title>
<path fill="none" stroke="black" d="M299.5,-376.39C299.5,-376.39 138.5,-376.39 138.5,-376.39 132.5,-376.39 126.5,-370.39 126.5,-364.39 126.5,-364.39 126.5,-352.39 126.5,-352.39 126.5,-346.39 132.5,-340.39 138.5,-340.39 138.5,-340.39 299.5,-340.39 299.5,-340.39 305.5,-340.39 311.5,-346.39 311.5,-352.39 311.5,-352.39 311.5,-364.39 311.5,-364.39 311.5,-370.39 305.5,-376.39 299.5,-376.39"/>
<text text-anchor="middle" x="219" y="-354.69" font-family="Helvetica,sans-Serif" font-size="14.00">Admin revisa solicitudes</text>
</g>
<!-- inscribirse&#45;&gt;admin_rev -->
<g id="edge9" class="edge">
<title>inscribirse&#45;&gt;admin_rev</title>
<path fill="none" stroke="black" d="M246.46,-587.93C262.65,-554.06 294.35,-474.63 270,-413.39 265.54,-402.18 257.53,-391.95 249.15,-383.48"/>
<polygon fill="black" stroke="black" points="251.45,-380.84 241.78,-376.51 246.64,-385.92 251.45,-380.84"/>
<text text-anchor="middle" x="288.5" y="-471.19" font-family="Times,serif" font-size="14.00">No</text>
</g>
<!-- pendiente -->
<g id="node10" class="node">
<title>pendiente</title>
<path fill="none" stroke="black" d="M249,-449.39C249,-449.39 51,-449.39 51,-449.39 45,-449.39 39,-443.39 39,-437.39 39,-437.39 39,-425.39 39,-425.39 39,-419.39 45,-413.39 51,-413.39 51,-413.39 249,-413.39 249,-413.39 255,-413.39 261,-419.39 261,-425.39 261,-425.39 261,-437.39 261,-437.39 261,-443.39 255,-449.39 249,-449.39"/>
<text text-anchor="middle" x="150" y="-427.69" font-family="Helvetica,sans-Serif" font-size="14.00">Solicitud en estado Pendiente</text>
</g>
<!-- solicitud&#45;&gt;pendiente -->
<g id="edge10" class="edge">
<title>solicitud&#45;&gt;pendiente</title>
<path fill="none" stroke="black" d="M179.51,-500.19C174.35,-488.33 167.38,-472.32 161.51,-458.84"/>
<polygon fill="black" stroke="black" points="164.68,-457.34 157.48,-449.57 158.26,-460.14 164.68,-457.34"/>
</g>
<!-- pendiente&#45;&gt;admin_rev -->
<g id="edge11" class="edge">
<title>pendiente&#45;&gt;admin_rev</title>
<path fill="none" stroke="black" d="M166.7,-413.21C175.26,-404.4 185.84,-393.52 195.23,-383.85"/>
<polygon fill="black" stroke="black" points="197.99,-386.03 202.45,-376.42 192.97,-381.16 197.99,-386.03"/>
</g>
<!-- acepta -->
<g id="node12" class="node">
<title>acepta</title>
<polygon fill="none" stroke="black" points="219,-303.39 102.03,-285.39 219,-267.39 335.97,-285.39 219,-303.39"/>
<text text-anchor="middle" x="219" y="-281.69" font-family="Helvetica,sans-Serif" font-size="14.00">¿Admin acepta?</text>
</g>
<!-- admin_rev&#45;&gt;acepta -->
<g id="edge12" class="edge">
<title>admin_rev&#45;&gt;acepta</title>
<path fill="none" stroke="black" d="M219,-340.21C219,-332.18 219,-322.44 219,-313.46"/>
<polygon fill="black" stroke="black" points="222.5,-313.42 219,-303.42 215.5,-313.42 222.5,-313.42"/>
</g>
<!-- aceptado -->
<g id="node13" class="node">
<title>aceptado</title>
<path fill="none" stroke="black" d="M196,-216.39C196,-216.39 12,-216.39 12,-216.39 6,-216.39 0,-210.39 0,-204.39 0,-204.39 0,-192.39 0,-192.39 0,-186.39 6,-180.39 12,-180.39 12,-180.39 196,-180.39 196,-180.39 202,-180.39 208,-186.39 208,-192.39 208,-192.39 208,-204.39 208,-204.39 208,-210.39 202,-216.39 196,-216.39"/>
<text text-anchor="middle" x="104" y="-194.69" font-family="Helvetica,sans-Serif" font-size="14.00">Cambiar estado a Aceptado</text>
</g>
<!-- acepta&#45;&gt;aceptado -->
<g id="edge13" class="edge">
<title>acepta&#45;&gt;aceptado</title>
<path fill="none" stroke="black" d="M199.75,-270.17C182.22,-257.21 156,-237.83 135.43,-222.62"/>
<polygon fill="black" stroke="black" points="137.41,-219.73 127.28,-216.61 133.25,-225.36 137.41,-219.73"/>
<text text-anchor="middle" x="176.5" y="-238.19" font-family="Times,serif" font-size="14.00">Sí</text>
</g>
<!-- rechazado -->
<g id="node14" class="node">
<title>rechazado</title>
<path fill="none" stroke="black" d="M432,-216.39C432,-216.39 238,-216.39 238,-216.39 232,-216.39 226,-210.39 226,-204.39 226,-204.39 226,-192.39 226,-192.39 226,-186.39 232,-180.39 238,-180.39 238,-180.39 432,-180.39 432,-180.39 438,-180.39 444,-186.39 444,-192.39 444,-192.39 444,-204.39 444,-204.39 444,-210.39 438,-216.39 432,-216.39"/>
<text text-anchor="middle" x="335" y="-194.69" font-family="Helvetica,sans-Serif" font-size="14.00">Cambiar estado a Rechazado</text>
</g>
<!-- acepta&#45;&gt;rechazado -->
<g id="edge14" class="edge">
<title>acepta&#45;&gt;rechazado</title>
<path fill="none" stroke="black" d="M238.42,-270.17C256.1,-257.21 282.55,-237.83 303.3,-222.62"/>
<polygon fill="black" stroke="black" points="305.52,-225.34 311.51,-216.61 301.38,-219.69 305.52,-225.34"/>
<text text-anchor="middle" x="293.5" y="-238.19" font-family="Times,serif" font-size="14.00">No</text>
</g>
<!-- consulta -->
<g id="node15" class="node">
<title>consulta</title>
<path fill="none" stroke="black" d="M299,-143.39C299,-143.39 139,-143.39 139,-143.39 133,-143.39 127,-137.39 127,-131.39 127,-131.39 127,-119.39 127,-119.39 127,-113.39 133,-107.39 139,-107.39 139,-107.39 299,-107.39 299,-107.39 305,-107.39 311,-113.39 311,-119.39 311,-119.39 311,-131.39 311,-131.39 311,-137.39 305,-143.39 299,-143.39"/>
<text text-anchor="middle" x="219" y="-121.69" font-family="Helvetica,sans-Serif" font-size="14.00">Usuario consulta estado</text>
</g>
<!-- aceptado&#45;&gt;consulta -->
<g id="edge15" class="edge">
<title>aceptado&#45;&gt;consulta</title>
<path fill="none" stroke="black" d="M131.55,-180.39C146.8,-170.97 165.95,-159.15 182.44,-148.97"/>
<polygon fill="black" stroke="black" points="184.61,-151.74 191.28,-143.51 180.93,-145.78 184.61,-151.74"/>
</g>
<!-- rechazado&#45;&gt;consulta -->
<g id="edge17" class="edge">
<title>rechazado&#45;&gt;consulta</title>
<path fill="none" stroke="black" d="M307.22,-180.39C291.83,-170.97 272.52,-159.15 255.88,-148.97"/>
<polygon fill="black" stroke="black" points="257.32,-145.74 246.96,-143.51 253.66,-151.71 257.32,-145.74"/>
</g>
<!-- consulta&#45;&gt;stop -->
<g id="edge16" class="edge">
<title>consulta&#45;&gt;stop</title>
<path fill="none" stroke="black" d="M219,-107.39C219,-99.74 219,-90.32 219,-80.87"/>
<polygon fill="black" stroke="black" points="222.5,-80.68 219,-70.68 215.5,-80.68 222.5,-80.68"/>
</g>
</g>
</svg>
