<?xml version="1.0" encoding="UTF-8" standalone="no"?>
<!DOCTYPE svg PUBLIC "-//W3C//DTD SVG 1.1//EN"
 "http://www.w3.org/Graphics/SVG/1.1/DTD/svg11.dtd">
<!-- Generated by graphviz version 2.43.0 (0)
 -->
<!-- Title: G Pages: 1 -->
<svg width="326pt" height="632pt"
 viewBox="0.00 0.00 326.00 632.39" xmlns="http://www.w3.org/2000/svg" xmlns:xlink="http://www.w3.org/1999/xlink">
<g id="graph0" class="graph" transform="scale(1 1) rotate(0) translate(4 628.39)">
<title>G</title>
<polygon fill="white" stroke="transparent" points="-4,4 -4,-628.39 322,-628.39 322,4 -4,4"/>
<!-- start -->
<g id="node1" class="node">
<title>start</title>
<ellipse fill="none" stroke="black" cx="155.5" cy="-591.89" rx="32.49" ry="32.49"/>
<text text-anchor="middle" x="155.5" y="-588.19" font-family="Helvetica,sans-Serif" font-size="14.00">Start</text>
</g>
<!-- env -->
<g id="node3" class="node">
<title>env</title>
<path fill="none" stroke="black" d="M230.5,-522.39C230.5,-522.39 80.5,-522.39 80.5,-522.39 74.5,-522.39 68.5,-516.39 68.5,-510.39 68.5,-510.39 68.5,-498.39 68.5,-498.39 68.5,-492.39 74.5,-486.39 80.5,-486.39 80.5,-486.39 230.5,-486.39 230.5,-486.39 236.5,-486.39 242.5,-492.39 242.5,-498.39 242.5,-498.39 242.5,-510.39 242.5,-510.39 242.5,-516.39 236.5,-522.39 230.5,-522.39"/>
<text text-anchor="middle" x="155.5" y="-500.69" font-family="Helvetica,sans-Serif" font-size="14.00">Usuario envía solicitud</text>
</g>
<!-- start&#45;&gt;env -->
<g id="edge1" class="edge">
<title>start&#45;&gt;env</title>
<path fill="none" stroke="black" d="M155.5,-559.06C155.5,-550.38 155.5,-541.05 155.5,-532.65"/>
<polygon fill="black" stroke="black" points="159,-532.63 155.5,-522.63 152,-532.63 159,-532.63"/>
</g>
<!-- stop -->
<g id="node2" class="node">
<title>stop</title>
<ellipse fill="none" stroke="black" cx="155.5" cy="-35.2" rx="31.37" ry="31.37"/>
<ellipse fill="none" stroke="black" cx="155.5" cy="-35.2" rx="35.4" ry="35.4"/>
<text text-anchor="middle" x="155.5" y="-31.5" font-family="Helvetica,sans-Serif" font-size="14.00">Stop</text>
</g>
<!-- registro -->
<g id="node4" class="node">
<title>registro</title>
<path fill="none" stroke="black" d="M254,-449.39C254,-449.39 57,-449.39 57,-449.39 51,-449.39 45,-443.39 45,-437.39 45,-437.39 45,-425.39 45,-425.39 45,-419.39 51,-413.39 57,-413.39 57,-413.39 254,-413.39 254,-413.39 260,-413.39 266,-419.39 266,-425.39 266,-425.39 266,-437.39 266,-437.39 266,-443.39 260,-449.39 254,-449.39"/>
<text text-anchor="middle" x="155.5" y="-427.69" font-family="Helvetica,sans-Serif" font-size="14.00">Crear registro en applications</text>
</g>
<!-- env&#45;&gt;registro -->
<g id="edge2" class="edge">
<title>env&#45;&gt;registro</title>
<path fill="none" stroke="black" d="M155.5,-486.21C155.5,-478.18 155.5,-468.44 155.5,-459.46"/>
<polygon fill="black" stroke="black" points="159,-459.42 155.5,-449.42 152,-459.42 159,-459.42"/>
</g>
<!-- admin -->
<g id="node5" class="node">
<title>admin</title>
<path fill="none" stroke="black" d="M236,-376.39C236,-376.39 75,-376.39 75,-376.39 69,-376.39 63,-370.39 63,-364.39 63,-364.39 63,-352.39 63,-352.39 63,-346.39 69,-340.39 75,-340.39 75,-340.39 236,-340.39 236,-340.39 242,-340.39 248,-346.39 248,-352.39 248,-352.39 248,-364.39 248,-364.39 248,-370.39 242,-376.39 236,-376.39"/>
<text text-anchor="middle" x="155.5" y="-354.69" font-family="Helvetica,sans-Serif" font-size="14.00">Admin revisa solicitudes</text>
</g>
<!-- registro&#45;&gt;admin -->
<g id="edge3" class="edge">
<title>registro&#45;&gt;admin</title>
<path fill="none" stroke="black" d="M155.5,-413.21C155.5,-405.18 155.5,-395.44 155.5,-386.46"/>
<polygon fill="black" stroke="black" points="159,-386.42 155.5,-376.42 152,-386.42 159,-386.42"/>
</g>
<!-- aceptar -->
<g id="node6" class="node">
<title>aceptar</title>
<polygon fill="none" stroke="black" points="155.5,-303.39 77.24,-285.39 155.5,-267.39 233.76,-285.39 155.5,-303.39"/>
<text text-anchor="middle" x="155.5" y="-281.69" font-family="Helvetica,sans-Serif" font-size="14.00">¿Aceptar?</text>
</g>
<!-- admin&#45;&gt;aceptar -->
<g id="edge4" class="edge">
<title>admin&#45;&gt;aceptar</title>
<path fill="none" stroke="black" d="M155.5,-340.21C155.5,-332.18 155.5,-322.44 155.5,-313.46"/>
<polygon fill="black" stroke="black" points="159,-313.42 155.5,-303.42 152,-313.42 159,-313.42"/>
</g>
<!-- aceptado -->
<g id="node7" class="node">
<title>aceptado</title>
<path fill="none" stroke="black" d="M133,-216.39C133,-216.39 12,-216.39 12,-216.39 6,-216.39 0,-210.39 0,-204.39 0,-204.39 0,-192.39 0,-192.39 0,-186.39 6,-180.39 12,-180.39 12,-180.39 133,-180.39 133,-180.39 139,-180.39 145,-186.39 145,-192.39 145,-192.39 145,-204.39 145,-204.39 145,-210.39 139,-216.39 133,-216.39"/>
<text text-anchor="middle" x="72.5" y="-194.69" font-family="Helvetica,sans-Serif" font-size="14.00">status = Aceptado</text>
</g>
<!-- aceptar&#45;&gt;aceptado -->
<g id="edge5" class="edge">
<title>aceptar&#45;&gt;aceptado</title>
<path fill="none" stroke="black" d="M141.79,-270.36C129.56,-257.83 111.36,-239.2 96.69,-224.17"/>
<polygon fill="black" stroke="black" points="98.87,-221.39 89.38,-216.69 93.87,-226.29 98.87,-221.39"/>
<text text-anchor="middle" x="127" y="-238.19" font-family="Times,serif" font-size="14.00">Sí</text>
</g>
<!-- rechazado -->
<g id="node8" class="node">
<title>rechazado</title>
<path fill="none" stroke="black" d="M306,-216.39C306,-216.39 175,-216.39 175,-216.39 169,-216.39 163,-210.39 163,-204.39 163,-204.39 163,-192.39 163,-192.39 163,-186.39 169,-180.39 175,-180.39 175,-180.39 306,-180.39 306,-180.39 312,-180.39 318,-186.39 318,-192.39 318,-192.39 318,-204.39 318,-204.39 318,-210.39 312,-216.39 306,-216.39"/>
<text text-anchor="middle" x="240.5" y="-194.69" font-family="Helvetica,sans-Serif" font-size="14.00">status = Rechazado</text>
</g>
<!-- aceptar&#45;&gt;rechazado -->
<g id="edge6" class="edge">
<title>aceptar&#45;&gt;rechazado</title>
<path fill="none" stroke="black" d="M169.54,-270.36C182.06,-257.83 200.7,-239.2 215.73,-224.17"/>
<polygon fill="black" stroke="black" points="218.61,-226.23 223.21,-216.69 213.66,-221.28 218.61,-226.23"/>
<text text-anchor="middle" x="213" y="-238.19" font-family="Times,serif" font-size="14.00">No</text>
</g>
<!-- notificar -->
<g id="node9" class="node">
<title>notificar</title>
<path fill="none" stroke="black" d="M245,-143.39C245,-143.39 66,-143.39 66,-143.39 60,-143.39 54,-137.39 54,-131.39 54,-131.39 54,-119.39 54,-119.39 54,-113.39 60,-107.39 66,-107.39 66,-107.39 245,-107.39 245,-107.39 251,-107.39 257,-113.39 257,-119.39 257,-119.39 257,-131.39 257,-131.39 257,-137.39 251,-143.39 245,-143.39"/>
<text text-anchor="middle" x="155.5" y="-121.69" font-family="Helvetica,sans-Serif" font-size="14.00">Notificar usuario (si aplica)</text>
</g>
<!-- aceptado&#45;&gt;notificar -->
<g id="edge7" class="edge">
<title>aceptado&#45;&gt;notificar</title>
<path fill="none" stroke="black" d="M92.59,-180.21C103.19,-171.14 116.37,-159.87 127.91,-149.99"/>
<polygon fill="black" stroke="black" points="130.27,-152.58 135.59,-143.42 125.72,-147.26 130.27,-152.58"/>
</g>
<!-- rechazado&#45;&gt;notificar -->
<g id="edge9" class="edge">
<title>rechazado&#45;&gt;notificar</title>
<path fill="none" stroke="black" d="M219.92,-180.21C209.07,-171.14 195.58,-159.87 183.75,-149.99"/>
<polygon fill="black" stroke="black" points="185.81,-147.15 175.89,-143.42 181.32,-152.52 185.81,-147.15"/>
</g>
<!-- notificar&#45;&gt;stop -->
<g id="edge8" class="edge">
<title>notificar&#45;&gt;stop</title>
<path fill="none" stroke="black" d="M155.5,-107.39C155.5,-99.74 155.5,-90.32 155.5,-80.87"/>
<polygon fill="black" stroke="black" points="159,-80.68 155.5,-70.68 152,-80.68 159,-80.68"/>
</g>
</g>
</svg>
